<svg width="80" height="80" viewBox="0 0 80 80" fill="none" xmlns="http://www.w3.org/2000/svg">
<g clip-path="url(#clip0_1_2)">
<path d="M80 40C80 62.0933 62.0933 80 40 80C17.9067 80 0 62.0933 0 40C0 17.9067 17.9067 0 40 0C62.0933 0 80 17.9067 80 40Z" fill="white"/>
<path d="M73 40C73 58.227 58.227 73 40 73C21.773 73 7 58.227 7 40C7 21.773 21.773 7 40 7C58.227 7 73 21.773 73 40Z" fill="black"/>
<path d="M40 0C17.898 0 0 17.898 0 40C0 62.102 17.898 80 40 80C62.102 80 80 62.102 80 40C80 17.898 62.102 0 40 0ZM40 75C20.699 75 5 59.301 5 40C5 20.699 20.699 5 40 5C59.301 5 75 20.699 75 40C75 59.301 59.301 75 40 75Z" fill="black"/>
<path d="M20.0002 34.424C20.0002 35.032 20.1522 35.568 20.4562 36.032C20.7762 36.48 21.1842 36.888 21.6802 37.256C22.1922 37.624 22.7282 37.992 23.2882 38.36C23.8962 38.744 24.4722 39.152 25.0162 39.584C25.5762 40 26.0322 40.488 26.3842 41.048C26.7522 41.592 26.9362 42.248 26.9362 43.016C26.9362 43.864 26.7042 44.608 26.2402 45.248C25.7922 45.888 25.1762 46.392 24.3922 46.76C23.6242 47.112 22.7442 47.288 21.7522 47.288C21.2722 47.288 20.7682 47.24 20.2402 47.144C19.7282 47.048 19.2562 46.928 18.8242 46.784C18.4082 46.64 18.1042 46.488 17.9122 46.328C17.8482 46.28 17.7922 46.232 17.7442 46.184C17.6962 46.12 17.6722 46.016 17.6722 45.872L17.6002 42.056C17.5842 41.976 17.6162 41.936 17.6962 41.936C17.7922 41.92 17.8482 41.944 17.8642 42.008C18.1042 42.504 18.3682 43.032 18.6562 43.592C18.9442 44.136 19.2642 44.64 19.6162 45.104C19.9842 45.568 20.3922 45.952 20.8402 46.256C21.2882 46.544 21.8002 46.688 22.3762 46.688C22.7442 46.688 23.0962 46.624 23.4322 46.496C23.7682 46.368 24.0402 46.136 24.2482 45.8C24.4722 45.464 24.5842 45 24.5842 44.408C24.5842 43.656 24.4162 43.016 24.0802 42.488C23.7442 41.944 23.3122 41.472 22.7842 41.072C22.2562 40.656 21.7042 40.264 21.1282 39.896C20.5682 39.528 20.0322 39.152 19.5202 38.768C19.0082 38.368 18.5922 37.92 18.2722 37.424C17.9522 36.912 17.7922 36.304 17.7922 35.6C17.7922 34.704 18.0402 33.976 18.5362 33.416C19.0482 32.84 19.6882 32.416 20.4562 32.144C21.2402 31.872 22.0322 31.736 22.8322 31.736C23.4082 31.736 23.9842 31.792 24.5602 31.904C25.1362 32 25.5922 32.12 25.9282 32.264C26.0882 32.328 26.1842 32.4 26.2162 32.48C26.2642 32.56 26.2882 32.648 26.2882 32.744V36.272C26.2882 36.32 26.2482 36.36 26.1682 36.392C26.1042 36.408 26.0562 36.392 26.0242 36.344C25.9282 36.152 25.7922 35.84 25.6162 35.408C25.4402 34.96 25.2082 34.496 24.9202 34.016C24.6322 33.536 24.2642 33.128 23.8162 32.792C23.3682 32.44 22.8242 32.264 22.1842 32.264C21.7842 32.264 21.4162 32.344 21.0802 32.504C20.7602 32.664 20.4962 32.904 20.2882 33.224C20.0962 33.528 20.0002 33.928 20.0002 34.424ZM30.9838 43.952L31.2238 32.552L31.9198 32.6L31.6558 43.952C31.6398 44.8 31.8078 45.472 32.1598 45.968C32.5278 46.464 33.0398 46.712 33.6958 46.712C33.7438 46.712 33.7678 46.76 33.7678 46.856C33.7678 46.952 33.7438 47 33.6958 47C33.3438 47 32.9838 46.992 32.6158 46.976C32.2478 46.96 31.8318 46.952 31.3678 46.952C30.8558 46.952 30.3918 46.96 29.9758 46.976C29.5598 46.992 29.1758 47 28.8238 47C28.7758 47 28.7518 46.952 28.7518 46.856C28.7518 46.76 28.7758 46.712 28.8238 46.712C29.4798 46.712 29.9998 46.464 30.3838 45.968C30.7678 45.472 30.9678 44.8 30.9838 43.952ZM48.1678 46.712C48.1998 46.712 48.2158 46.76 48.2158 46.856C48.2158 46.952 48.1998 47 48.1678 47C47.7518 47 47.2798 46.992 46.7518 46.976C46.2238 46.96 45.6718 46.952 45.0958 46.952C44.5038 46.952 43.9518 46.96 43.4398 46.976C42.9278 46.992 42.4638 47 42.0478 47C41.9998 47 41.9758 46.952 41.9758 46.856C41.9758 46.76 41.9998 46.712 42.0478 46.712C42.7998 46.712 43.2798 46.608 43.4878 46.4C43.7118 46.192 43.7998 45.744 43.7518 45.056L43.1998 34.4L44.4238 32.48L38.3038 46.832C38.2878 46.896 38.2238 46.928 38.1118 46.928C38.0158 46.928 37.9518 46.896 37.9198 46.832L31.1758 33.992C30.5678 32.856 29.8398 32.288 28.9918 32.288C28.9438 32.288 28.9198 32.24 28.9198 32.144C28.9198 32.048 28.9438 32 28.9918 32C29.3278 32 29.6798 32.008 30.0478 32.024C30.4158 32.04 30.7278 32.048 30.9838 32.048C31.3998 32.048 31.7598 32.04 32.0638 32.024C32.3838 32.008 32.6318 32 32.8078 32C33.0318 32 33.1998 32.08 33.3118 32.24C33.4398 32.4 33.6398 32.736 33.9118 33.248L39.2878 43.328L38.0878 45.488L43.7038 32.6C43.7998 32.376 43.8958 32.224 43.9918 32.144C44.1038 32.048 44.2478 32 44.4238 32C44.5838 32 44.7518 32.008 44.9278 32.024C45.1038 32.04 45.3118 32.048 45.5518 32.048C46.0638 32.048 46.4958 32.04 46.8478 32.024C47.2158 32.008 47.5758 32 47.9278 32C47.9758 32 47.9998 32.048 47.9998 32.144C47.9998 32.24 47.9758 32.288 47.9278 32.288C47.1918 32.288 46.6478 32.44 46.2958 32.744C45.9598 33.048 45.8078 33.52 45.8398 34.16L46.4158 45.056C46.4478 45.52 46.5038 45.872 46.5838 46.112C46.6798 46.352 46.8478 46.512 47.0878 46.592C47.3278 46.672 47.6878 46.712 48.1678 46.712ZM54.0819 32.552C53.1059 32.552 52.2739 32.88 51.5859 33.536C50.9139 34.176 50.3779 35.088 49.9779 36.272C49.9619 36.32 49.9139 36.344 49.8339 36.344C49.7539 36.328 49.7139 36.296 49.7139 36.248C49.7459 36.024 49.7779 35.712 49.8099 35.312C49.8419 34.896 49.8739 34.448 49.9059 33.968C49.9539 33.488 49.9859 33.024 50.0019 32.576C50.0339 32.128 50.0499 31.76 50.0499 31.472C50.0499 31.392 50.0899 31.352 50.1699 31.352C50.2659 31.352 50.3139 31.392 50.3139 31.472C50.3139 31.632 50.3939 31.752 50.5539 31.832C50.7299 31.896 50.9219 31.944 51.1299 31.976C51.3539 31.992 51.5379 32 51.6819 32C53.0579 32.048 54.6659 32.072 56.5059 32.072C57.6259 32.072 58.5219 32.064 59.1939 32.048C59.8659 32.016 60.5139 32 61.1379 32C61.7139 32 62.1459 31.968 62.4339 31.904C62.7379 31.824 62.9299 31.656 63.0099 31.4C63.0259 31.336 63.0739 31.304 63.1539 31.304C63.2499 31.304 63.2979 31.336 63.2979 31.4C63.2659 31.656 63.2339 32.016 63.2019 32.48C63.1859 32.928 63.1619 33.408 63.1299 33.92C63.1139 34.416 63.0979 34.88 63.0819 35.312C63.0659 35.728 63.0579 36.04 63.0579 36.248C63.0579 36.296 63.0179 36.32 62.9379 36.32C62.8579 36.32 62.8099 36.296 62.7939 36.248C62.5539 34.984 62.0979 34.056 61.4259 33.464C60.7699 32.856 59.9699 32.552 59.0259 32.552C58.7059 32.552 58.4579 32.6 58.2819 32.696C58.1219 32.776 58.0099 32.92 57.9459 33.128C57.8979 33.336 57.8739 33.624 57.8739 33.992V45.056C57.8739 45.52 57.9219 45.872 58.0179 46.112C58.1139 46.352 58.2979 46.512 58.5699 46.592C58.8579 46.672 59.2899 46.712 59.8659 46.712C59.9139 46.712 59.9379 46.76 59.9379 46.856C59.9379 46.952 59.9139 47 59.8659 47C59.4179 47 58.9139 46.992 58.3539 46.976C57.7939 46.96 57.1779 46.952 56.5059 46.952C55.8659 46.952 55.2659 46.96 54.7059 46.976C54.1459 46.992 53.6339 47 53.1699 47C53.1219 47 53.0979 46.952 53.0979 46.856C53.0979 46.76 53.1219 46.712 53.1699 46.712C53.7299 46.712 54.1539 46.672 54.4419 46.592C54.7299 46.512 54.9219 46.352 55.0179 46.112C55.1299 45.872 55.1859 45.52 55.1859 45.056V33.944C55.1859 33.592 55.1539 33.32 55.0899 33.128C55.0419 32.92 54.9379 32.776 54.7779 32.696C54.6179 32.6 54.3859 32.552 54.0819 32.552Z" fill="white"/>
</g>
<defs>
<clipPath id="clip0_1_2">
<rect width="80" height="80" fill="white"/>
</clipPath>
</defs>
</svg>
